<?xml version="1.0" encoding="UTF-8"?>
<svg width="351px" height="515px" viewBox="0 0 351 515" version="1.1" xmlns="http://www.w3.org/2000/svg" xmlns:xlink="http://www.w3.org/1999/xlink">
    <!-- Generator: Sketch 55.2 (78181) - https://sketchapp.com -->
    <title>California</title>
    <desc>Created with Sketch.</desc>
    <defs>
        <path d="M118.517413,465.007927 L125.791045,476.115144 L122.79602,476.328744 L118.945274,472.270338 L118.517413,465.007927 Z M122.58209,444.075094 L126.432836,452.832708 L131.995025,454.968711 L133.492537,453.687109 L130.711443,448.347101 L125.149254,443.220693 L122.58209,444.075094 Z M80.0099502,403.49103 L80.0099502,408.617438 L84.2885572,411.180642 L93.7014925,410.753442 L95.840796,408.617438 L89.2089552,408.190238 L80.0099502,403.49103 Z M67.3880597,403.704631 L74.4477612,404.772632 L77.4427861,409.47184 L69.3134328,409.47184 L67.3880597,403.704631 Z M169.860697,500.892783 L167.721393,494.484773 L168.149254,488.076763 L167.293532,471.202336 L163.442786,460.94952 L160.875622,457.959116 L159.59204,454.755111 L144.616915,436.385482 L136.915423,436.599082 L132.636816,432.540676 L134.99005,428.69587 L133.492537,420.792657 L128.78607,418.229453 L120.442786,416.947851 L114.452736,414.171047 L111.243781,410.112641 L101.616915,396.015019 L95.840796,391.315811 L87.9253731,390.24781 L81.2935323,385.335002 L71.238806,382.130997 L65.2487562,381.490196 L59.9004975,376.150188 L60.3283582,370.169378 L62.039801,359.916562 L65.8905473,349.022945 L62.8955224,345.60534 L54.3383085,325.526909 L48.5621891,317.623696 L47.7064677,311.215686 L44.2835821,306.302879 L44.7114428,300.96287 L40.4328358,290.282854 L34.2288557,284.515645 L35.5124378,269.350021 L40.6467662,267.641218 L44.4975124,261.019608 L43.641791,254.184397 L41.5024876,252.261994 L36.1542289,252.261994 L30.8059701,245.213183 L27.5970149,237.737171 L27.5970149,221.717146 L30.1641791,212.745932 L30.5920398,208.260325 L35.9402985,208.687526 L35.7263682,212.105131 L34.0149254,213.600334 L34.0149254,218.940342 L41.9303483,225.775553 L41.9303483,215.736337 L38.9353234,208.473926 L40.0049751,206.124322 L37.8656716,202.493116 L43.8557214,199.289111 L39.7910448,192.881101 L36.7960199,193.949103 L33.5870647,202.065916 L34.6567164,204.84272 L32.9452736,206.978723 L31.0199005,206.765123 L19.4676617,193.735503 L20.9651741,181.773884 L18.6119403,173.443471 L4.70646766,146.102628 L6.41791045,123.247393 L11.3383085,115.557781 L11.7661692,101.887359 L0,78.1777222 L0.641791045,67.0705048 L15.4029851,51.0504798 L19.039801,45.9240718 L18.8258706,42.9336671 L27.3830846,23.2824364 L27.5970149,5.34000834 L29.5223881,0 L170.930348,39.7296621 L135.845771,174.511473 L138.199005,181.987484 L288.80597,406.267835 L286.880597,410.753442 L289.661692,418.015853 L292.656716,421.860659 L295.223881,434.249479 L300.144279,439.589487 L301,443.647893 L298.218905,446.424698 L287.950249,450.055903 L282.81592,457.745515 L279.393035,472.697539 L274.258706,479.532749 L270.835821,480.17355 L268.482587,494.911973 L270.835821,498.329579 L274.686567,498.756779 L276.825871,502.174385 L275.114428,507.300793 L268.696517,512 L263.99005,511.7864 L169.860697,500.892783 Z" id="path-1"></path>
    </defs>
    <g id="U.S.-50-States-Map-Outline-" stroke="none" stroke-width="1" fill="none" fill-rule="evenodd">
        <g id="Maps-Outline-with-Flags" transform="translate(-2432.000000, -58.000000)">
            <g id="California" transform="translate(2433.000000, 60.000000)">
                <mask id="mask-2" fill="white">
                    <use xlink:href="#path-1"></use>
                </mask>
                <use stroke="#000000" stroke-width="2" fill="#FFFFFF" xlink:href="#path-1"></use>
            </g>
        </g>
    </g>
</svg>